<svg width="246" height="24" viewBox="0 0 246 24" fill="none" xmlns="http://www.w3.org/2000/svg">
<path d="M15.88 11.352C17.1173 11.7573 18.0987 12.44 18.824 13.4C19.5493 14.3387 19.912 15.512 19.912 16.92C19.912 18.8613 19.1653 20.3653 17.672 21.432C16.1787 22.4773 14.0027 23 11.144 23H0.00800014V0.599998H10.504C13.1493 0.599998 15.1867 1.12267 16.616 2.168C18.0453 3.192 18.76 4.61067 18.76 6.424C18.76 7.53333 18.504 8.51467 17.992 9.368C17.48 10.2213 16.776 10.8827 15.88 11.352ZM4.168 3.864V10.04H10.056C11.5067 10.04 12.616 9.784 13.384 9.272C14.1733 8.73867 14.568 7.97067 14.568 6.968C14.568 5.944 14.1733 5.176 13.384 4.664C12.616 4.13067 11.5067 3.864 10.056 3.864H4.168ZM10.888 19.736C14.1093 19.736 15.72 18.6587 15.72 16.504C15.72 14.3493 14.1093 13.272 10.888 13.272H4.168V19.736H10.888ZM38.8798 17.816H27.6798L25.4718 23H21.1837L31.2638 0.599998H35.3598L45.4718 23H41.1198L38.8798 17.816ZM37.5037 14.552L33.2798 4.76L29.0878 14.552H37.5037ZM55.2645 23.32C53.5365 23.32 51.8618 23.0747 50.2405 22.584C48.6405 22.0933 47.3712 21.4427 46.4325 20.632L47.8725 17.4C48.7898 18.1253 49.9098 18.7227 51.2325 19.192C52.5765 19.64 53.9205 19.864 55.2645 19.864C56.9285 19.864 58.1658 19.5973 58.9765 19.064C59.8085 18.5307 60.2245 17.8267 60.2245 16.952C60.2245 16.312 59.9898 15.7893 59.5205 15.384C59.0725 14.9573 58.4965 14.6267 57.7925 14.392C57.0885 14.1573 56.1285 13.8907 54.9125 13.592C53.2058 13.1867 51.8192 12.7813 50.7525 12.376C49.7072 11.9707 48.8005 11.3413 48.0325 10.488C47.2858 9.61333 46.9125 8.44 46.9125 6.968C46.9125 5.73067 47.2432 4.61067 47.9045 3.608C48.5872 2.584 49.6005 1.77333 50.9445 1.176C52.3098 0.578665 53.9738 0.279999 55.9365 0.279999C57.3018 0.279999 58.6458 0.450666 59.9685 0.792C61.2912 1.13333 62.4325 1.624 63.3925 2.264L62.0805 5.496C61.0992 4.92 60.0752 4.48267 59.0085 4.184C57.9418 3.88533 56.9072 3.736 55.9045 3.736C54.2618 3.736 53.0352 4.01333 52.2245 4.568C51.4352 5.12267 51.0405 5.85867 51.0405 6.776C51.0405 7.416 51.2645 7.93867 51.7125 8.344C52.1818 8.74933 52.7685 9.06933 53.4725 9.304C54.1765 9.53867 55.1365 9.80533 56.3525 10.104C58.0165 10.488 59.3818 10.8933 60.4485 11.32C61.5152 11.7253 62.4218 12.3547 63.1685 13.208C63.9365 14.0613 64.3205 15.2133 64.3205 16.664C64.3205 17.9013 63.9792 19.0213 63.2965 20.024C62.6352 21.0267 61.6218 21.8267 60.2565 22.424C58.8912 23.0213 57.2272 23.32 55.2645 23.32ZM68.4455 0.599998H72.6055V23H68.4455V0.599998ZM89.0323 23.32C86.7709 23.32 84.7229 22.8293 82.8883 21.848C81.0749 20.8453 79.6456 19.4693 78.6003 17.72C77.5763 15.9707 77.0643 13.9973 77.0643 11.8C77.0643 9.60267 77.5869 7.62933 78.6323 5.88C79.6776 4.13067 81.1069 2.76533 82.9203 1.784C84.7549 0.781332 86.8029 0.279999 89.0643 0.279999C90.8989 0.279999 92.5736 0.599999 94.0883 1.24C95.6029 1.88 96.8829 2.808 97.9283 4.024L95.2403 6.552C93.6189 4.80267 91.6243 3.928 89.2563 3.928C87.7203 3.928 86.3443 4.26933 85.1283 4.952C83.9123 5.61333 82.9629 6.54133 82.2803 7.736C81.5976 8.93067 81.2563 10.2853 81.2563 11.8C81.2563 13.3147 81.5976 14.6693 82.2803 15.864C82.9629 17.0587 83.9123 17.9973 85.1283 18.68C86.3443 19.3413 87.7203 19.672 89.2563 19.672C91.6243 19.672 93.6189 18.7867 95.2403 17.016L97.9283 19.576C96.8829 20.792 95.5923 21.72 94.0563 22.36C92.5416 23 90.8669 23.32 89.0323 23.32ZM110.758 0.599998H120.55C122.939 0.599998 125.062 1.06933 126.918 2.008C128.774 2.92533 130.214 4.23733 131.238 5.944C132.262 7.62933 132.774 9.58133 132.774 11.8C132.774 14.0187 132.262 15.9813 131.238 17.688C130.214 19.3733 128.774 20.6853 126.918 21.624C125.062 22.5413 122.939 23 120.55 23H110.758V0.599998ZM120.358 19.48C122.001 19.48 123.441 19.1707 124.678 18.552C125.937 17.912 126.897 17.016 127.558 15.864C128.241 14.6907 128.582 13.336 128.582 11.8C128.582 10.264 128.241 8.92 127.558 7.768C126.897 6.59467 125.937 5.69867 124.678 5.08C123.441 4.44 122.001 4.12 120.358 4.12H114.918V19.48H120.358ZM137.196 0.599998H141.356V23H137.196V0.599998ZM162.71 11.544H166.646V20.472C165.494 21.3893 164.15 22.0933 162.614 22.584C161.078 23.0747 159.5 23.32 157.878 23.32C155.596 23.32 153.537 22.8293 151.702 21.848C149.868 20.8453 148.428 19.4693 147.382 17.72C146.337 15.9707 145.814 13.9973 145.814 11.8C145.814 9.60267 146.337 7.62933 147.382 5.88C148.428 4.13067 149.868 2.76533 151.702 1.784C153.558 0.781332 155.638 0.279999 157.942 0.279999C159.82 0.279999 161.526 0.589332 163.062 1.208C164.598 1.82667 165.889 2.73333 166.934 3.928L164.31 6.488C162.604 4.78133 160.545 3.928 158.134 3.928C156.556 3.928 155.148 4.25867 153.91 4.92C152.694 5.58133 151.734 6.50933 151.03 7.704C150.348 8.89867 150.006 10.264 150.006 11.8C150.006 13.2933 150.348 14.6373 151.03 15.832C151.734 17.0267 152.694 17.9653 153.91 18.648C155.148 19.3307 156.545 19.672 158.102 19.672C159.852 19.672 161.388 19.288 162.71 18.52V11.544ZM172.133 0.599998H176.293V23H172.133V0.599998ZM186.896 4.12H179.472V0.599998H198.48V4.12H191.056V23H186.896V4.12ZM215.005 17.816H203.805L201.597 23H197.309L207.389 0.599998H211.485L221.597 23H217.245L215.005 17.816ZM213.629 14.552L209.405 4.76L205.213 14.552H213.629ZM224.446 0.599998H228.606V19.48H240.318V23H224.446V0.599998Z" fill="#575DFA"/>
<path d="M243.986 23.16C243.516 23.16 243.111 22.9893 242.77 22.648C242.45 22.3067 242.29 21.8907 242.29 21.4C242.29 20.9093 242.45 20.504 242.77 20.184C243.111 19.8427 243.516 19.672 243.986 19.672C244.455 19.672 244.86 19.8427 245.202 20.184C245.543 20.504 245.714 20.9093 245.714 21.4C245.714 21.8907 245.543 22.3067 245.202 22.648C244.86 22.9893 244.455 23.16 243.986 23.16Z" fill="#DB504A"/>
</svg>
